# xmcd
#
# Track frame offsets: 
#        150
#        16785
#        29585
#        44292
#        62032
#        77177
#        91172
#        109097
#        125107
#        138697
#
# Disc length: 2064 seconds
#
# Revision: 1
# Processed by: cddbd v1.5.2PL0 Copyright (c) Steve Scherf et al.
# Submitted via: ExactAudioCopy v0.95b4
#
DISCID=86080e0a
DTITLE=สาธิกา  สุพรรษา - เมาไม่เลิก
DYEAR=1900
DGENRE=Country
TTITLE0=เมาไม่เลิก
TTITLE1=สาวใต้พ่ายรัก
TTITLE2=รักน้องต้องชัวร์
TTITLE3=ทีเด็ดสิบเอ็ดโมง
TTITLE4=คิดถึงพี่จ่า
TTITLE5=หลงมนต์คนใต้
TTITLE6=ขอเวลาห้านาที
TTITLE7=ถูกตัวไม่ต้องกลัวเสียตังค์
TTITLE8=ผู้ชายไก่แจ้
TTITLE9=ถามแม่ก่อน
EXTD=
EXTT0=
EXTT1=
EXTT2=
EXTT3=
EXTT4=
EXTT5=
EXTT6=
EXTT7=
EXTT8=
EXTT9=
PLAYORDER=
